<?xml version="1.0" encoding="UTF-8"?>
<svg width="21.242" height="17.68" viewBox="0 0 24 24" xmlns="http://www.w3.org/2000/svg">
<path d="m22.624 6.404c-4e-3 -0.025-9e-3 -0.05-0.015-0.074-4e-3 -0.045-0.013-0.089-0.027-0.132-0.013-0.04-0.031-0.079-0.052-0.116-0.02-0.037-0.044-0.072-0.071-0.105s-0.058-0.063-0.092-0.09c-0.031-0.026-0.065-0.049-0.1-0.069-0.04-0.022-0.083-0.038-0.127-0.05-0.022-0.011-0.045-0.02-0.069-0.027-0.02-1e-3 -0.039-1e-3 -0.059 0-0.02 0-0.038-0.011-0.058-0.011h-11.555c-0.372 0-0.674 0.302-0.674 0.674s0.302 0.674 0.674 0.674h10.745l-1.688 9.561h-10.424l-2.463-12.928c-8e-3 -0.023-0.017-0.045-0.027-0.066-0.013-0.043-0.03-0.085-0.051-0.125-0.019-0.035-0.042-0.069-0.068-0.1-0.03-0.037-0.063-0.07-0.1-0.1-0.031-0.025-0.065-0.046-0.1-0.065-0.04-0.023-0.083-0.041-0.127-0.055-0.04-0.012-0.081-0.02-0.122-0.025-0.024-6e-3 -0.049-0.011-0.074-0.015h-3.851c-0.372 0-0.674 0.302-0.674 0.674s0.302 0.674 0.674 0.674h3.295l2.462 12.928c8e-3 0.026 0.018 0.051 0.029 0.076 0.01 0.034 0.022 0.068 0.038 0.1 0.023 0.043 0.05 0.084 0.082 0.121 0.019 0.026 0.04 0.05 0.063 0.073 0.04 0.034 0.083 0.064 0.13 0.088 0.024 0.015 0.049 0.03 0.075 0.042 0.078 0.032 0.161 0.049 0.245 0.05h1.476c-0.304 0.313-0.475 0.732-0.475 1.169 0 0.931 0.755 1.686 1.686 1.686s1.686-0.755 1.686-1.686c0-0.437-0.17-0.856-0.475-1.169h4.322c-0.304 0.313-0.475 0.732-0.475 1.169 0 0.931 0.755 1.686 1.686 1.686s1.686-0.755 1.686-1.686c0-0.437-0.17-0.856-0.475-1.169h0.91 0.022c0.076-2e-3 0.152-0.017 0.223-0.045 0.029-0.014 0.057-0.029 0.083-0.047 0.044-0.023 0.085-0.052 0.123-0.084 0.024-0.024 0.046-0.05 0.066-0.078 0.031-0.036 0.058-0.076 0.08-0.118 0.015-0.032 0.028-0.066 0.037-0.1 0.012-0.026 0.022-0.053 0.03-0.08l1.925-10.909c1e-3 -0.02 1e-3 -0.039 0-0.059 5e-3 -0.024 0.015-0.042 0.015-0.062z"/>
</svg>
