<?xml version="1.0" encoding="UTF-8"?>
<svg width="14.991" height="20.648" viewBox="0 0 24 24" xmlns="http://www.w3.org/2000/svg">
<g transform="translate(4.5063 1.6751)">
<g transform="translate(9.246 8.04)">
<path transform="translate(-1062.1 -525.51)" d="M1062.979,538.12a.841.841,0,0,1-.841-.841V526.353a.841.841,0,0,1,1.681,0V537.28A.841.841,0,0,1,1062.979,538.12Z"/>
</g>
<g transform="translate(0 7.2)">
<path transform="translate(-1051.1 -524.51)" d="m1052 537.96a0.84 0.84 0 0 1-0.841-0.841v-11.767a0.841 0.841 0 1 1 1.681 0v11.767a0.841 0.841 0 0 1-0.84 0.841z"/>
</g>
<g transform="translate(10.507 .895)">
<path transform="translate(-1063.6 -517.01)" d="M1064.058,522.9a.42.42,0,0,1-.42-.42v-5.043a.42.42,0,1,1,.841,0v5.043A.42.42,0,0,1,1064.058,522.9Z"/>
</g>
<g transform="translate(7.985 .895)">
<path transform="translate(-1060.6 -517.01)" d="M1061.058,522.9a.42.42,0,0,1-.42-.42v-5.043a.42.42,0,0,1,.841,0v5.043A.421.421,0,0,1,1061.058,522.9Z"/>
</g>
<g transform="translate(9.268 1.184)">
<path transform="translate(-1062.2 -517.36)" d="M1063.461,525.867c-.177,0-.356-.007-.534-.024a.841.841,0,1,1,.156-1.674,3.885,3.885,0,0,0,2.361-.523,2.076,2.076,0,0,0,.76-1.321V518.2a.841.841,0,0,1,1.681,0l-.007,4.286a3.769,3.769,0,0,1-1.452,2.529l-.076.05A5.574,5.574,0,0,1,1063.461,525.867Z"/>
</g>
<g transform="translate(.342)">
<path transform="translate(-1051.5 -515.95)" d="M1052.52,528.534q-.252,0-.505-.009l.056-1.679a13.631,13.631,0,0,0,2.333-.123.341.341,0,0,0,.1-.147h0a11.21,11.21,0,0,0-.6-5.719c-1.017-3.087-2.339-3.228-2.352-3.229v-1.68c.244-.006,2.528.069,3.95,4.384a12.437,12.437,0,0,1,.614,6.73,2.048,2.048,0,0,1-1.043,1.223l-.244.076A15.3,15.3,0,0,1,1052.52,528.534Z"/>
</g>
</g>
</svg>
