<?xml version="1.0" encoding="UTF-8"?>
<svg width="22.311" height="20.17" viewBox="0 0 24 24" xmlns="http://www.w3.org/2000/svg">
<g transform="translate(.84931 1.9151)">
<path transform="translate(-14.33 106.9)" d="M28.031-94.139l-.782-3.276-1.358,6.109a.416.416,0,0,1-.381.326h-.026a.416.416,0,0,1-.392-.277L23.22-96.509l-1.173,2.453a.417.417,0,0,1-.376.237h-3.3l7.1,7.091.035-.035.033.033,7.09-7.089H28.436A.417.417,0,0,1,28.031-94.139Z"/>
<path transform="translate(-7.18 123.66)" d="M15.75-115.593a.42.42,0,0,1,.4-.237.417.417,0,0,1,.371.276l1.723,4.834,1.436-6.462a.416.416,0,0,1,.4-.326h0a.416.416,0,0,1,.405.32l1.126,4.714h4.7l1.641-1.64-.019-.019a5.637,5.637,0,0,0-.1-7.875,5.638,5.638,0,0,0-7.975,0,5.617,5.617,0,0,0-1.528,2.816,5.605,5.605,0,0,0-1.528-2.816,5.639,5.639,0,0,0-7.976,0,5.641,5.641,0,0,0,0,7.976l1.56,1.558h3.867Z"/>
</g>
</svg>
