<?xml version="1.0" encoding="UTF-8"?>
<svg width="20.74" height="18.096" viewBox="0 0 24 24" xmlns="http://www.w3.org/2000/svg">
<g transform="matrix(.70711 .70711 -.70711 .70711 11.065 -1.7305)">
<path transform="translate(8.756)" d="M1.548,0C2.4,0,3.1,2.566,3.1,3.617V14.033c0,1.051-.693,3.62-1.548,3.62S0,15.084,0,14.033V3.617C0,2.566.693,0,1.548,0Z"/>
<path transform="translate(0 6.399)" d="M10.446,0C16.173,0,20.74,1.986,20.74,3.118s-3.381,0-10.294,0S0,4.25,0,3.118,4.718,0,10.446,0Z"/>
<path transform="translate(6.293 15.055)" d="M4.107,0C6.359,0,8.154,1.668,8.154,2.618s-1.329,0-4.047,0S0,3.569,0,2.618,1.855,0,4.107,0Z"/>
</g>
</svg>
