<?xml version="1.0" encoding="UTF-8"?>
<svg width="22.321" height="16.512" preserveAspectRatio="none" viewBox="0 0 24 24" xmlns="http://www.w3.org/2000/svg">
<g transform="translate(.83948 3.7436)">
<g transform="translate(11.817 6.008)">
<g transform="translate(0)">
<ellipse cx="5.252" cy="5.252" rx="5.252" ry="5.252" fill="none"/>
</g>
<g transform="translate(0)">
<path transform="translate(-1097.1 -525.53)" d="m1102.4 536.03a5.252 5.252 0 1 1 5.252-5.252 5.258 5.258 0 0 1-5.252 5.252zm0-9.848a4.6 4.6 0 1 0 4.6 4.6 4.6 4.6 0 0 0-4.6-4.6z"/>
</g>
</g>
<g transform="translate(0 6.008)">
<ellipse cx="5.252" cy="5.252" rx="5.252" ry="5.252" fill="none"/>
<g transform="translate(0)">
<path transform="translate(-1079.1 -525.53)" d="m1084.4 536.03a5.252 5.252 0 1 1 5.252-5.252 5.258 5.258 0 0 1-5.252 5.252zm0-9.848a4.6 4.6 0 1 0 4.6 4.6 4.6 4.6 0 0 0-4.6-4.6z"/>
</g>
<g transform="translate(3.611 .985)">
<rect width="3.282" height="1.313"/>
</g>
<g transform="translate(.328 2.954)">
<path transform="translate(-1079.6 -530.03)" d="M1080.295,534.624a.656.656,0,0,1-.657-.656v-3.283a.656.656,0,1,1,1.313,0v3.283A.656.656,0,0,1,1080.295,534.624Z"/>
</g>
<g transform="translate(8.863 2.954)">
<path transform="translate(-1092.6 -530.03)" d="M1093.295,534.624a.656.656,0,0,1-.657-.656v-3.283a.656.656,0,1,1,1.313,0v3.283A.656.656,0,0,1,1093.295,534.624Z"/>
</g>
<g transform="translate(8.206 2.954)">
<path transform="translate(-1091.6 -530.03)" d="M1092.295,534.624a.656.656,0,0,1-.656-.656v-3.283a.656.656,0,1,1,1.313,0v3.283A.656.656,0,0,1,1092.295,534.624Z"/>
</g>
<g transform="translate(.985 2.954)">
<path transform="translate(-1080.6 -530.03)" d="M1081.294,534.624a.656.656,0,0,1-.656-.656v-3.283a.656.656,0,1,1,1.313,0v3.283A.656.656,0,0,1,1081.294,534.624Z"/>
</g>
<g transform="translate(.985 .985)">
<path transform="translate(-1080.6 -527.03)" d="M1081.295,529.654a.657.657,0,0,1-.464-1.121l1.313-1.313a.656.656,0,0,1,.928.928l-1.313,1.313A.653.653,0,0,1,1081.295,529.654Z"/>
</g>
<g transform="translate(1.641 1.642)">
<path transform="translate(-1081.6 -528.03)" d="M1082.295,530.654a.657.657,0,0,1-.464-1.121l1.313-1.313a.656.656,0,0,1,.928.928l-1.313,1.313A.653.653,0,0,1,1082.295,530.654Z"/>
</g>
<g transform="translate(6.237 6.237)">
<path transform="translate(-1088.6 -535.03)" d="M1089.294,537.654a.657.657,0,0,1-.464-1.121l1.313-1.313a.656.656,0,0,1,.928.928l-1.313,1.313A.653.653,0,0,1,1089.294,537.654Z"/>
</g>
<g transform="translate(6.893 6.894)">
<path transform="translate(-1089.6 -536.03)" d="M1090.295,538.654a.656.656,0,0,1-.464-1.121l1.313-1.313a.656.656,0,0,1,.928.928l-1.313,1.313A.653.653,0,0,1,1090.295,538.654Z"/>
</g>
<g transform="translate(6.237 1.642)">
<path transform="translate(-1088.6 -528.03)" d="M1090.607,530.654a.651.651,0,0,1-.464-.192l-1.313-1.313a.656.656,0,0,1,.928-.928l1.313,1.313a.657.657,0,0,1-.464,1.121Z"/>
</g>
<g transform="translate(6.893 .985)">
<path transform="translate(-1089.6 -527.03)" d="M1091.608,529.654a.651.651,0,0,1-.464-.192l-1.313-1.313a.656.656,0,0,1,.928-.928l1.313,1.313a.657.657,0,0,1-.464,1.121Z"/>
</g>
<g transform="translate(1.641 6.237)">
<path transform="translate(-1081.6 -535.03)" d="M1083.607,537.654a.652.652,0,0,1-.464-.192l-1.313-1.313a.656.656,0,0,1,.928-.928l1.313,1.313a.657.657,0,0,1-.464,1.121Z"/>
</g>
<g transform="translate(.985 6.894)">
<path transform="translate(-1080.6 -536.03)" d="M1082.608,538.654a.651.651,0,0,1-.464-.192l-1.313-1.313a.656.656,0,0,1,.928-.928l1.313,1.313a.656.656,0,0,1-.464,1.121Z"/>
</g>
<g transform="translate(3.611 .329)">
<rect width="3.282" height="1.313"/>
</g>
<g transform="translate(2.954 6.237)">
<path transform="translate(-1083.6 -535.03)" d="M1084.295,538.967a.656.656,0,0,1-.657-.656v-2.626a.656.656,0,0,1,1.313,0v2.626A.656.656,0,0,1,1084.295,538.967Z"/>
</g>
<g transform="translate(6.237 6.237)">
<path transform="translate(-1088.6 -535.03)" d="M1089.295,538.967a.656.656,0,0,1-.656-.656v-2.626a.656.656,0,1,1,1.313,0v2.626A.656.656,0,0,1,1089.295,538.967Z"/>
</g>
<g transform="translate(6.237 .328)">
<path transform="translate(-1088.6 -526.03)" d="M1089.295,529.967a.656.656,0,0,1-.656-.657v-2.626a.656.656,0,1,1,1.313,0v2.626A.656.656,0,0,1,1089.295,529.967Z"/>
</g>
<g transform="translate(2.954 .328)">
<path transform="translate(-1083.6 -526.03)" d="M1084.295,529.967a.656.656,0,0,1-.657-.657v-2.626a.656.656,0,0,1,1.313,0v2.626A.656.656,0,0,1,1084.295,529.967Z"/>
</g>
<g transform="translate(3.611 8.207)">
<rect width="3.282" height="1.313"/>
</g>
<g transform="translate(3.611 8.863)">
<rect width="3.282" height="1.313"/>
</g>
<g transform="translate(.985 6.237)">
<rect width="3.282" height="1.313"/>
</g>
<g transform="translate(.985 2.955)">
<rect width="3.282" height="1.313"/>
</g>
<g transform="translate(6.237 2.955)">
<rect width="3.282" height="1.313"/>
</g>
<g transform="translate(6.237 6.237)">
<rect width="3.282" height="1.313"/>
</g>
</g>
<g transform="translate(15.099 6.664)">
<g transform="translate(0)">
<ellipse cx="1.969" cy="1.969" rx="1.969" ry="1.969" fill="none"/>
</g>
<g transform="translate(0)">
<path transform="translate(-1102.1 -526.53)" d="m1104.1 530.47a1.97 1.97 0 1 1 1.969-1.97 1.971 1.971 0 0 1-1.969 1.97zm0-3.283a1.313 1.313 0 1 0 1.313 1.313 1.315 1.315 0 0 0-1.313-1.312z"/>
</g>
</g>
<g transform="translate(12.473 9.29)">
<g transform="translate(0)">
<ellipse cx="1.969" cy="1.969" rx="1.969" ry="1.969" fill="none"/>
</g>
<g transform="translate(0)">
<path transform="translate(-1098.1 -530.53)" d="m1100.1 534.47a1.969 1.969 0 1 1 1.97-1.969 1.971 1.971 0 0 1-1.97 1.969zm0-3.283a1.313 1.313 0 1 0 1.313 1.313 1.315 1.315 0 0 0-1.313-1.312z"/>
</g>
</g>
<g transform="translate(15.099 11.916)">
<g transform="translate(0)">
<ellipse cx="1.969" cy="1.969" rx="1.969" ry="1.969" fill="none"/>
</g>
<g transform="translate(0)">
<path transform="translate(-1102.1 -534.53)" d="m1104.1 538.47a1.97 1.97 0 1 1 1.969-1.97 1.971 1.971 0 0 1-1.969 1.97zm0-3.283a1.313 1.313 0 1 0 1.313 1.313 1.315 1.315 0 0 0-1.313-1.312z"/>
</g>
</g>
<g transform="translate(17.725 9.29)">
<g transform="translate(0)">
<ellipse cx="1.969" cy="1.969" rx="1.969" ry="1.969" fill="none"/>
</g>
<g transform="translate(0)">
<path transform="translate(-1106.1 -530.53)" d="m1108.1 534.47a1.969 1.969 0 1 1 1.969-1.969 1.971 1.971 0 0 1-1.969 1.969zm0-3.283a1.313 1.313 0 1 0 1.313 1.313 1.315 1.315 0 0 0-1.313-1.312z"/>
</g>
</g>
<g transform="translate(15.756 9.947)">
<path transform="translate(-1103.1 -531.53)" d="M1105.436,532.185h-1.969a.328.328,0,1,1,0-.657h1.969a.328.328,0,0,1,0,.657Z"/>
</g>
<g transform="translate(15.756 11.916)">
<path transform="translate(-1103.1 -534.53)" d="M1105.436,535.185h-1.969a.328.328,0,1,1,0-.656h1.969a.328.328,0,1,1,0,.656Z"/>
</g>
<g transform="translate(16.084 10.275)">
<path transform="translate(-1103.6 -532.03)" d="M1104.294,534a.656.656,0,0,1-.656-.656v-.656a.656.656,0,1,1,1.313,0v.656A.656.656,0,0,1,1104.294,534Z"/>
</g>
<g transform="translate(16.741 10.275)">
<path transform="translate(-1104.6 -532.03)" d="M1105.294,534a.656.656,0,0,1-.656-.656v-.656a.656.656,0,0,1,1.313,0v.656A.656.656,0,0,1,1105.294,534Z"/>
</g>
<g transform="translate(15.756 15.199)">
<path transform="translate(-1103.1 -539.53)" d="M1105.436,540.185h-1.969a.328.328,0,1,1,0-.656h1.969a.328.328,0,1,1,0,.656Z"/>
</g>
<g transform="translate(15.756 6.664)">
<path transform="translate(-1103.1 -526.53)" d="M1105.436,527.185h-1.969a.328.328,0,1,1,0-.656h1.969a.328.328,0,1,1,0,.656Z"/>
</g>
<g transform="translate(17.725 6.664)">
<path transform="translate(-1106.1 -526.53)" d="M1110.405,531.124a.33.33,0,0,1-.232-.1l-3.939-3.939a.328.328,0,0,1,.464-.464l3.939,3.939a.328.328,0,0,1-.232.56Z"/>
</g>
<g transform="translate(11.817 11.26)">
<path transform="translate(-1097.1 -533.53)" d="M1101.405,538.124a.33.33,0,0,1-.232-.1l-3.939-3.939a.328.328,0,0,1,.464-.464l3.939,3.939a.328.328,0,0,1-.232.56Z"/>
</g>
<g transform="translate(17.725 11.26)">
<path transform="translate(-1106.1 -533.53)" d="M1106.466,538.124a.328.328,0,0,1-.232-.56l3.939-3.939a.328.328,0,0,1,.464.464l-3.939,3.939A.327.327,0,0,1,1106.466,538.124Z"/>
</g>
<g transform="translate(11.817 6.664)">
<path transform="translate(-1097.1 -526.53)" d="M1097.466,531.124a.328.328,0,0,1-.232-.56l3.939-3.939a.328.328,0,0,1,.464.464l-3.939,3.939A.327.327,0,0,1,1097.466,531.124Z"/>
</g>
<g transform="translate(18.054 6.336)">
<path transform="translate(-1106.6 -526.03)" d="M1109.92,529.967a.651.651,0,0,1-.464-.192l-2.626-2.626a.656.656,0,0,1,.928-.928l2.626,2.626a.657.657,0,0,1-.464,1.121Z"/>
</g>
<g transform="translate(12.145 12.245)">
<path transform="translate(-1097.6 -535.03)" d="M1100.92,538.967a.651.651,0,0,1-.464-.192l-2.626-2.626a.656.656,0,0,1,.928-.928l2.626,2.626a.656.656,0,0,1-.464,1.121Z"/>
</g>
<g transform="translate(18.054 12.245)">
<path transform="translate(-1106.6 -535.03)" d="M1107.295,538.967a.656.656,0,0,1-.464-1.121l2.626-2.626a.656.656,0,0,1,.928.928l-2.626,2.626A.652.652,0,0,1,1107.295,538.967Z"/>
</g>
<g transform="translate(12.145 6.336)">
<path transform="translate(-1097.6 -526.03)" d="M1098.294,529.967a.657.657,0,0,1-.464-1.121l2.626-2.626a.656.656,0,1,1,.928.928l-2.626,2.626A.653.653,0,0,1,1098.294,529.967Z"/>
</g>
<g transform="translate(18.271 12.686)">
<g transform="translate(0)">
<path transform="translate(-1107 -535.7)" d="m1107 535.7 2.329 0.425-1.825 1.888z" fill="none"/>
</g>
<g transform="translate(0)">
<path transform="translate(-1107 -535.7)" d="m1107 535.7 2.329 0.425-1.825 1.888z"/>
</g>
</g>
<g transform="translate(13.399 12.593)">
<g transform="translate(0)">
<path transform="translate(-1099.5 -535.56)" d="m1101.8 535.56-0.179 2.361-2.069-1.617z" fill="none"/>
</g>
<g transform="translate(0)">
<path transform="translate(-1099.5 -535.56)" d="m1101.8 535.56-0.179 2.361-2.069-1.617z"/>
</g>
</g>
<g transform="translate(18.346 7.83)">
<path transform="translate(-1107.1 -528.3)" d="m1107.1 530.66 0.261-2.353 2.011 1.688z" fill="none"/>
<path transform="translate(-1107.1 -528.3)" d="m1107.1 530.66 0.261-2.353 2.011 1.688z"/>
</g>
<g transform="translate(21.276 10.087)">
<path transform="translate(-1111.5 -531.74)" d="m1111.5 533.05 0.656-1.313v2.626z" fill="none"/>
<path transform="translate(-1111.5 -531.74)" d="m1111.5 533.05 0.656-1.313v2.626z"/>
</g>
<g transform="translate(13.412 7.81)">
<g transform="translate(0)">
<path transform="translate(-1099.6 -528.27)" d="m1101.9 530.6-2.313-0.5 1.888-1.825z" fill="none"/>
</g>
<g transform="translate(0)">
<path transform="translate(-1099.6 -528.27)" d="m1101.9 530.6-2.313-0.5 1.888-1.825z"/>
</g>
</g>
<g transform="translate(8.206 14.543)">
<rect transform="translate(0)" width="5.908" height=".656"/>
</g>
<g transform="translate(5.252 6.008)">
<path transform="translate(-1087.1 -525.53)" d="M1099.283,526.184h-11.817a.328.328,0,1,1,0-.656h11.817a.328.328,0,1,1,0,.656Z"/>
</g>
<g transform="translate(6.893 6.336)">
<path transform="translate(-1089.6 -526.03)" d="M1098.172,527.341h-7.878a.656.656,0,0,1,0-1.313h7.878a.656.656,0,1,1,0,1.313Z"/>
</g>
<g transform="translate(7.55 6.993)">
<path transform="translate(-1090.6 -527.03)" d="M1097.859,528.341h-6.565a.656.656,0,0,1,0-1.313h6.565a.656.656,0,0,1,0,1.313Z"/>
</g>
<g transform="translate(6.565 7.977)">
<path transform="translate(-1089.1 -528.53)" d="M1096.031,530.5h-5.908a.985.985,0,0,1,0-1.969h5.908a.985.985,0,1,1,0,1.969Z"/>
</g>
<g transform="translate(8.206 9.619)">
<path transform="translate(-1091.6 -531.03)" d="m1094.9 533.65h-1.97a1.313 1.313 0 0 1 0-2.626h1.97a1.313 1.313 0 1 1 0 2.626z"/>
</g>
<g transform="translate(8.206 11.588)">
<path transform="translate(-1091.6 -534.03)" d="m1095.6 536.65h-2.626a1.313 1.313 0 0 1 0-2.626h2.626a1.313 1.313 0 0 1 0 2.626z"/>
</g>
<g transform="translate(8.206 12.245)">
<path transform="translate(-1091.6 -535.03)" d="m1095.6 537.65h-2.626a1.313 1.313 0 0 1 0-2.626h2.626a1.313 1.313 0 0 1 0 2.626z"/>
</g>
<g transform="translate(7.768)">
<path transform="translate(-1091 -516.38)" d="M1092.919,523.594a.656.656,0,0,1-.2-1.281,15.6,15.6,0,0,0,3.257-1.371c.629-.515.628-.523.574-.967a.422.422,0,0,0-.458-.416,14.358,14.358,0,0,0-2.1.654l-.071.024a2.188,2.188,0,0,1-2.57-.622c-.621-.754-.486-1.75.4-2.958a.672.672,0,0,1,.93-.158.638.638,0,0,1,.154.9c-.513.7-.663,1.151-.473,1.381.335.408.59.36,1.18.2a16.219,16.219,0,0,1,2.2-.691,1.824,1.824,0,0,1,.248-.038,1.729,1.729,0,0,1,1.866,1.594c.127,1.031-.223,1.438-1.05,2.115a16.234,16.234,0,0,1-3.685,1.6A.669.669,0,0,1,1092.919,523.594Z"/>
</g>
</g>
</svg>
