<?xml version="1.0" encoding="UTF-8"?>
<svg width="22.208" height="18.336" viewBox="0 0 24 24" xmlns="http://www.w3.org/2000/svg">
<g transform="translate(.573 3.0411)">
<g transform="translate(0)">
<g transform="translate(0)">
<ellipse transform="translate(.322 -.209)" cx="6.5" cy="3" rx="6.5" ry="3" fill="none"/>
</g>
<g transform="translate(.643 .582)">
<path transform="translate(101.76 -518.98)" d="m-95.66 524.32c-2.939 0-6.1-0.835-6.1-2.67s3.163-2.67 6.1-2.67 6.1 0.836 6.1 2.67-3.161 2.67-6.1 2.67zm0-3.814c-2.931 0-4.483 0.84-4.578 1.159 0.095 0.291 1.646 1.13 4.578 1.13s4.484-0.838 4.578-1.157c-0.094-0.293-1.646-1.137-4.578-1.137z"/>
</g>
</g>
<g transform="translate(.643 4.042)">
<g transform="translate(0)">
<path transform="translate(101.76 -523.52)" d="m-95.711 523.86c3.16 0 2.49-0.583 3.687-0.229 1.4 0.413 2.467 1.226 2.467 2.147 0 1.475-2.732 2.67-6.1 2.67s-6.1-1.2-6.1-2.67c0-0.834 0.875-1.58 2.467-2.145 0.825-0.295 0.742 0.227 3.579 0.227z" fill="none"/>
</g>
<g transform="translate(0 .001)">
<path transform="translate(101.76 -523.52)" d="M-92.615,525.053l-.054.015a10.58,10.58,0,0,1-3.043.317,12.418,12.418,0,0,1-2.947-.278l-.143-.031a3.992,3.992,0,0,0-1.355.709,3.355,3.355,0,0,0,1.166.628,10.263,10.263,0,0,0,3.331.508,10.268,10.268,0,0,0,3.332-.508,3.287,3.287,0,0,0,1.181-.642,3.124,3.124,0,0,0-1.306-.674l0,0h0c-.071-.021-.121-.034-.155-.042m-.017-1.536a2.154,2.154,0,0,1,.607.116c1.4.41,2.467,1.223,2.467,2.144,0,1.475-2.732,2.67-6.1,2.67s-6.1-1.2-6.1-2.67c0-.834.876-1.58,2.468-2.145a1.31,1.31,0,0,1,.459-.092,15.591,15.591,0,0,0,3.124.319A11.826,11.826,0,0,0-92.631,523.517Z"/>
</g>
</g>
<g transform="translate(.643 7.093)">
<g transform="translate(0)">
<path transform="translate(101.76 -527.52)" d="m-95.711 527.86c3.16 0 2.49-0.584 3.687-0.229 1.4 0.413 2.467 1.226 2.467 2.147 0 1.475-2.732 2.67-6.1 2.67s-6.1-1.2-6.1-2.67c0-0.834 0.875-1.58 2.467-2.145 0.825-0.295 0.742 0.227 3.579 0.227z" fill="none"/>
</g>
<g transform="translate(0 .001)">
<path transform="translate(101.76 -527.52)" d="M-92.615,529.053l-.054.015a10.579,10.579,0,0,1-3.043.317,12.414,12.414,0,0,1-2.947-.278l-.143-.031a3.992,3.992,0,0,0-1.355.709,3.353,3.353,0,0,0,1.166.628,10.26,10.26,0,0,0,3.331.508,10.265,10.265,0,0,0,3.332-.508,3.283,3.283,0,0,0,1.181-.642,3.126,3.126,0,0,0-1.306-.674l0,0h0c-.071-.021-.121-.034-.155-.042m-.017-1.536a2.153,2.153,0,0,1,.607.116c1.4.41,2.467,1.223,2.467,2.144,0,1.475-2.732,2.67-6.1,2.67s-6.1-1.2-6.1-2.67c0-.834.876-1.58,2.468-2.145a1.314,1.314,0,0,1,.459-.092,15.591,15.591,0,0,0,3.124.319A11.826,11.826,0,0,0-92.631,527.517Z"/>
</g>
</g>
<g transform="translate(.643 10.144)">
<g transform="translate(0)">
<path transform="translate(101.76 -531.52)" d="m-95.711 531.86c3.16 0 2.49-0.584 3.687-0.229 1.4 0.413 2.467 1.226 2.467 2.147 0 1.475-2.732 2.67-6.1 2.67s-6.1-1.2-6.1-2.67c0-0.834 0.875-1.58 2.467-2.145 0.825-0.295 0.742 0.227 3.579 0.227z" fill="none"/>
</g>
<g transform="translate(0 .001)">
<path transform="translate(101.76 -531.52)" d="M-92.615,533.053l-.054.015a10.582,10.582,0,0,1-3.043.317,12.411,12.411,0,0,1-2.947-.278l-.143-.031a3.993,3.993,0,0,0-1.355.709,3.354,3.354,0,0,0,1.166.628,10.263,10.263,0,0,0,3.331.508,10.268,10.268,0,0,0,3.332-.508,3.284,3.284,0,0,0,1.181-.642,3.128,3.128,0,0,0-1.306-.674l0,0h0c-.071-.021-.121-.034-.155-.042m-.017-1.536a2.154,2.154,0,0,1,.607.116c1.4.41,2.467,1.223,2.467,2.144,0,1.475-2.732,2.67-6.1,2.67s-6.1-1.2-6.1-2.67c0-.834.876-1.58,2.468-2.145a1.31,1.31,0,0,1,.459-.092,15.594,15.594,0,0,0,3.124.319A11.826,11.826,0,0,0-92.631,531.517Z"/>
</g>
</g>
<g transform="translate(.643 13.195)">
<path transform="translate(101.76 -535.52)" d="m-95.711 535.86c3.16 0 2.49-0.583 3.687-0.229 1.4 0.414 2.467 1.226 2.467 2.147 0 1.475-2.732 2.67-6.1 2.67s-6.1-1.2-6.1-2.67c0-0.834 0.875-1.58 2.467-2.145 0.825-0.295 0.742 0.227 3.579 0.227z" fill="none"/>
<g transform="translate(0 .001)">
<path transform="translate(101.76 -535.52)" d="M-92.615,537.053l-.054.014a10.579,10.579,0,0,1-3.043.317,12.414,12.414,0,0,1-2.947-.278l-.143-.031a3.992,3.992,0,0,0-1.355.709,3.354,3.354,0,0,0,1.166.628,10.263,10.263,0,0,0,3.331.508,10.268,10.268,0,0,0,3.332-.508,3.284,3.284,0,0,0,1.181-.642,3.127,3.127,0,0,0-1.306-.674h-.007c-.071-.021-.121-.034-.155-.042m-.017-1.536a2.15,2.15,0,0,1,.607.116c1.4.41,2.467,1.223,2.467,2.144,0,1.475-2.732,2.67-6.1,2.67s-6.1-1.2-6.1-2.67c0-.834.876-1.58,2.468-2.145a1.312,1.312,0,0,1,.459-.092,15.591,15.591,0,0,0,3.124.319A11.826,11.826,0,0,0-92.631,535.517Z"/>
</g>
</g>
<path transform="translate(99.632 -519.81)" d="M-82.7,524.984a6.416,6.416,0,0,0-.886-.068,6.46,6.46,0,0,0-.963.079,6.481,6.481,0,0,0-5.488,5.742,6.568,6.568,0,0,0-.034.663,6.329,6.329,0,0,0,.034.662,6.483,6.483,0,0,0,6.45,5.822A6.484,6.484,0,0,0-77.1,531.4,6.48,6.48,0,0,0-82.7,524.984Zm1.684,4.854a.763.763,0,0,1-1-.405,1.387,1.387,0,0,0-1.282-.849h-.016a1.6,1.6,0,0,0-1.221.348.846.846,0,0,0-.28.568c0,.313,0,.7,1.479,1.088,1.73.45,2.58,1.326,2.525,2.6a2.34,2.34,0,0,1-1.86,2.161v.626a.763.763,0,0,1-.763.763.763.763,0,0,1-.763-.763v-.564a4.157,4.157,0,0,1-2.694-1.762.763.763,0,0,1,.211-1.058.763.763,0,0,1,1.058.211,2.625,2.625,0,0,0,2.018,1.155c1.11,0,1.259-.584,1.27-.834.008-.19.03-.693-1.384-1.06-1.812-.471-2.621-1.262-2.621-2.565a2.372,2.372,0,0,1,.754-1.672,2.784,2.784,0,0,1,1.39-.7v-.4a.763.763,0,0,1,.763-.763.763.763,0,0,1,.763.763v.4a2.879,2.879,0,0,1,2.06,1.713A.764.764,0,0,1-81.015,529.838Z"/>
</g>
</svg>
